# xmcd CD database file
#
# Track frame offsets:
#	183
#	13260
#	22770
#	33423
#	44563
#	57465
#	87285
#	98850
#	110278
#	121923
#	135320
#	151153
#	161890
#	174540
#	186140
#
# Disc length: 2932 seconds
#
# Revision: 0
# Processed by: cddbd v1.4PL0 Copyright (c) Steve Scherf et al.
# Submitted via: CDex 1.40Beta9
#
DISCID=bc0b720f
DTITLE=Charley Pride - Greatest Hits, Live
DYEAR=2000
DGENRE=Country
TTITLE0=Kaw-Liga
TTITLE1=Kiss An Angel Good Mornin'
TTITLE2=Oklahoma Morning
TTITLE3=It's Gonna Take A Little Bit Longer
TTITLE4=Crystal Chandeliers
TTITLE5=Medley
TTITLE6=Shutters And Boards
TTITLE7=The Happiness Of Having You
TTITLE8=My Eyes Can Only See As Far As You
TTITLE9=I'm So Afraid Of Losing You Again
TTITLE10=Let Me Live In The Light Of His Love
TTITLE11=Mississippi Cotton-Picking Delta Town
TTITLE12=Help Me Make It Through The Night
TTITLE13=Louisianna Man
TTITLE14=Medley
EXTD=YEAR: 2000 ID3G: 2
EXTT0=
EXTT1=
EXTT2=
EXTT3=
EXTT4=
EXTT5=
EXTT6=
EXTT7=
EXTT8=
EXTT9=
EXTT10=
EXTT11=
EXTT12=
EXTT13=
EXTT14=
PLAYORDER=
